<svg xmlns="http://www.w3.org/2000/svg" xmlns:xlink="http://www.w3.org/1999/xlink" xmlns:lucid="lucid" width="1374.06" height="1178"><g transform="translate(-166.94162012965114 461)" lucid:page-tab-id="0_0"><path d="M0-500h2000v1500H0z" fill="#fff"/><path d="M680 486a6 6 0 0 1 6-6h294.6a6 6 0 0 1 6 6v224a6 6 0 0 1-6 6H686a6 6 0 0 1-6-6z" stroke="#3a414a" stroke-width="2" fill="#edf5ff"/><path d="M680 522.67h306.6M680 659.27h306.6" stroke="#3a414a" stroke-width="2" fill="none"/><use xlink:href="#a" transform="matrix(1,0,0,1,688,488) translate(111.61111111111111 17.944444444444443)"/><use xlink:href="#b" transform="matrix(1,0,0,1,692,530.6666666666666) translate(0 24.766666666666673)"/><use xlink:href="#c" transform="matrix(1,0,0,1,692,530.6666666666666) translate(12.97777777777778 24.766666666666673)"/><use xlink:href="#d" transform="matrix(1,0,0,1,692,530.6666666666666) translate(35.437037037037044 24.766666666666673)"/><use xlink:href="#e" transform="matrix(1,0,0,1,692,530.6666666666666) translate(47.2888888888889 24.766666666666673)"/><use xlink:href="#f" transform="matrix(1,0,0,1,692,530.6666666666666) translate(0 51.07777777777779)"/><use xlink:href="#g" transform="matrix(1,0,0,1,692,530.6666666666666) translate(13.518518518518519 51.07777777777779)"/><use xlink:href="#d" transform="matrix(1,0,0,1,692,530.6666666666666) translate(54.88148148148149 51.07777777777779)"/><use xlink:href="#h" transform="matrix(1,0,0,1,692,530.6666666666666) translate(66.73333333333333 51.07777777777779)"/><use xlink:href="#i" transform="matrix(1,0,0,1,692,530.6666666666666) translate(0 77.74444444444445)"/><use xlink:href="#j" transform="matrix(1,0,0,1,692,530.6666666666666) translate(96.17283950617283 77.74444444444445)"/><use xlink:href="#k" transform="matrix(1,0,0,1,692,530.6666666666666) translate(108.51851851851852 77.74444444444445)"/><use xlink:href="#l" transform="matrix(1,0,0,1,692,530.6666666666666) translate(0 104.41111111111113)"/><use xlink:href="#m" transform="matrix(1,0,0,1,692,530.6666666666666) translate(155.37037037037038 104.41111111111113)"/><path d="M167.94 26a6 6 0 0 1 6-6H474a6 6 0 0 1 6 6v221a6 6 0 0 1-6 6H173.94a6 6 0 0 1-6-6z" stroke="#3a414a" stroke-width="2" fill="#edf5ff"/><path d="M167.94 60H480m-312.06 57.67H480" stroke="#3a414a" stroke-width="2" fill="none"/><use xlink:href="#n" transform="matrix(1,0,0,1,175.94162012965114,28) translate(109.66666666666666 16)"/><use xlink:href="#o" transform="matrix(1,0,0,1,179.94162012965114,125.66666666666667) translate(0 25.511111111111113)"/><use xlink:href="#p" transform="matrix(1,0,0,1,179.94162012965114,125.66666666666667) translate(19.1358024691358 25.511111111111113)"/><use xlink:href="#o" transform="matrix(1,0,0,1,179.94162012965114,125.66666666666667) translate(0 52.177777777777784)"/><use xlink:href="#q" transform="matrix(1,0,0,1,179.94162012965114,125.66666666666667) translate(19.1358024691358 52.177777777777784)"/><use xlink:href="#r" transform="matrix(1,0,0,1,179.94162012965114,125.66666666666667) translate(0 78.13333333333334)"/><use xlink:href="#s" transform="matrix(1,0,0,1,179.94162012965114,125.66666666666667) translate(18.370370370370374 78.13333333333334)"/><use xlink:href="#r" transform="matrix(1,0,0,1,179.94162012965114,125.66666666666667) translate(0 103.73333333333335)"/><use xlink:href="#t" transform="matrix(1,0,0,1,179.94162012965114,125.66666666666667) translate(18.370370370370374 103.73333333333335)"/><path d="M1300 26a6 6 0 0 1 6-6h228a6 6 0 0 1 6 6v164a6 6 0 0 1-6 6h-228a6 6 0 0 1-6-6z" stroke="#3a414a" stroke-width="2" fill="#edf5ff"/><path d="M1300 61.6h240m-240 52.6h240" stroke="#3a414a" stroke-width="2" fill="none"/><use xlink:href="#u" transform="matrix(1,0,0,1,1308,28) translate(72.91851851851851 17.266666666666666)"/><use xlink:href="#r" transform="matrix(1,0,0,1,1312,122.20000000000002) translate(0 24.96666666666667)"/><use xlink:href="#v" transform="matrix(1,0,0,1,1312,122.20000000000002) translate(18.370370370370374 24.96666666666667)"/><use xlink:href="#r" transform="matrix(1,0,0,1,1312,122.20000000000002) translate(0 50.56666666666667)"/><use xlink:href="#w" transform="matrix(1,0,0,1,1312,122.20000000000002) translate(18.370370370370374 50.56666666666667)"/><path d="M720-454a6 6 0 0 1 6-6h314.6a6 6 0 0 1 6 6v341a6 6 0 0 1-6 6H726a6 6 0 0 1-6-6z" stroke="#3a414a" stroke-width="2" fill="#edf5ff"/><path d="M720-418.4h326.6M720-221.68h326.6" stroke="#3a414a" stroke-width="2" fill="none"/><use xlink:href="#x" transform="matrix(1,0,0,1,728,-452) translate(108.24074074074073 17.266666666666666)"/><use xlink:href="#y" transform="matrix(1,0,0,1,732,-410.4) translate(0 41.03333333333334)"/><use xlink:href="#c" transform="matrix(1,0,0,1,732,-410.4) translate(17.77777777777778 41.03333333333334)"/><use xlink:href="#d" transform="matrix(1,0,0,1,732,-410.4) translate(40.23703703703704 41.03333333333334)"/><use xlink:href="#z" transform="matrix(1,0,0,1,732,-410.4) translate(52.088888888888896 41.03333333333334)"/><use xlink:href="#A" transform="matrix(1,0,0,1,732,-410.4) translate(0 67.34444444444446)"/><use xlink:href="#B" transform="matrix(1,0,0,1,732,-410.4) translate(18.51851851851852 67.34444444444446)"/><use xlink:href="#d" transform="matrix(1,0,0,1,732,-410.4) translate(65.86666666666667 67.34444444444446)"/><use xlink:href="#C" transform="matrix(1,0,0,1,732,-410.4) translate(77.71851851851852 67.34444444444446)"/><use xlink:href="#D" transform="matrix(1,0,0,1,732,-410.4) translate(0 94.1888888888889)"/><use xlink:href="#E" transform="matrix(1,0,0,1,732,-410.4) translate(18.7037037037037 94.1888888888889)"/><use xlink:href="#F" transform="matrix(1,0,0,1,732,-410.4) translate(78.3685185185185 94.1888888888889)"/><use xlink:href="#G" transform="matrix(1,0,0,1,732,-410.4) translate(90.83765432098764 94.1888888888889)"/><use xlink:href="#D" transform="matrix(1,0,0,1,732,-410.4) translate(0 121.12222222222222)"/><use xlink:href="#H" transform="matrix(1,0,0,1,732,-410.4) translate(18.7037037037037 121.12222222222222)"/><use xlink:href="#F" transform="matrix(1,0,0,1,732,-410.4) translate(120.82592592592589 121.12222222222222)"/><use xlink:href="#G" transform="matrix(1,0,0,1,732,-410.4) translate(133.295061728395 121.12222222222222)"/><use xlink:href="#D" transform="matrix(1,0,0,1,732,-410.4) translate(0 148.05555555555554)"/><use xlink:href="#I" transform="matrix(1,0,0,1,732,-410.4) translate(18.7037037037037 148.05555555555554)"/><use xlink:href="#J" transform="matrix(1,0,0,1,732,-410.4) translate(68.45555555555553 148.05555555555554)"/><g><use xlink:href="#r" transform="matrix(1,0,0,1,732,-213.6833333333333) translate(0 40.96666666666667)"/><use xlink:href="#K" transform="matrix(1,0,0,1,732,-213.6833333333333) translate(18.370370370370374 40.96666666666667)"/><use xlink:href="#r" transform="matrix(1,0,0,1,732,-213.6833333333333) translate(0 66.56666666666666)"/><use xlink:href="#L" transform="matrix(1,0,0,1,732,-213.6833333333333) translate(18.370370370370374 66.56666666666666)"/></g><path d="M320 626a6 6 0 0 1 6-6h228a6 6 0 0 1 6 6v48a6 6 0 0 1-6 6H326a6 6 0 0 1-6-6z" fill="none"/><g><use xlink:href="#M" transform="matrix(1,0,0,1,320,620) translate(98.6962962962963 34.266666666666666)"/></g><path d="M500 626a6 6 0 0 1 6-6h228a6 6 0 0 1 6 6v56.4a6 6 0 0 1-6 6H506a6 6 0 0 1-6-6z" fill="none"/><g><use xlink:href="#N" transform="matrix(1,0,0,1,500,620) translate(101.48148148148148 38.94444444444444)"/></g><path d="M200 266a6 6 0 0 1 6-6h228a6 6 0 0 1 6 6v56.4a6 6 0 0 1-6 6H206a6 6 0 0 1-6-6z" fill="none"/><g><use xlink:href="#O" transform="matrix(1,0,0,1,200,260) translate(103.33333333333334 38.94444444444444)"/></g><path d="M1280 206a6 6 0 0 1 6-6h228a6 6 0 0 1 6 6v48a6 6 0 0 1-6 6h-228a6 6 0 0 1-6-6z" fill="none"/><g><use xlink:href="#N" transform="matrix(1,0,0,1,1280,200) translate(101.48148148148148 34.44444444444444)"/></g><path d="M900 546a6 6 0 0 1 6-6h228a6 6 0 0 1 6 6v48a6 6 0 0 1-6 6H906a6 6 0 0 1-6-6z" fill="none"/><g><use xlink:href="#P" transform="matrix(1,0,0,1,900,540) translate(105.18518518518519 34.44444444444444)"/></g><path d="M1356.52 228.13V592a6 6 0 0 1-6 6h-362.9" stroke="#3a414a" stroke-width="3" fill="none"/><path d="M1356.52 199.12l-14.85 14.85 14.85 14.85 14.85-14.85z" stroke="#3a414a" stroke-width="3" fill="#fff"/><path d="M989.1 613v-30" stroke="#3a414a" stroke-width="3" fill="none"/><path d="M720 6a6 6 0 0 1 6-6h328a6 6 0 0 1 6 6v194a6 6 0 0 1-6 6H726a6 6 0 0 1-6-6z" stroke="#3a414a" stroke-width="2" fill="#edf5ff"/><path d="M720 41.6h340M720 98.2h340" stroke="#3a414a" stroke-width="2" fill="none"/><g><use xlink:href="#Q" transform="matrix(1,0,0,1,728,8) translate(94.5925925925926 17.266666666666666)"/></g><g><use xlink:href="#R" transform="matrix(1,0,0,1,732,106.20000000000002) translate(0 24.666666666666664)"/><use xlink:href="#S" transform="matrix(1,0,0,1,732,106.20000000000002) translate(0 50.26666666666667)"/><use xlink:href="#T" transform="matrix(1,0,0,1,732,106.20000000000002) translate(0 75.86666666666667)"/></g><path d="M1068.23-280H1414a6 6 0 0 1 6 6V19" stroke="#3a414a" stroke-width="3" fill="none"/><path d="M1052.46-280l14.27-4.63v9.26z" stroke="#3a414a" stroke-width="3" fill="#3a414a"/><path d="M1435 17.5h-30M698.38-283.5h-368.4a6 6 0 0 0-6 6V19" stroke="#3a414a" stroke-width="3" fill="none"/><path d="M714.15-283.5l-14.27 4.63v-9.26z" stroke="#3a414a" stroke-width="3" fill="#3a414a"/><path d="M338.97 17.5h-30" stroke="#3a414a" stroke-width="3" fill="none"/><path d="M1060 606a6 6 0 0 1 6-6h228a6 6 0 0 1 6 6v48a6 6 0 0 1-6 6h-228a6 6 0 0 1-6-6z" fill="none"/><g><use xlink:href="#U" transform="matrix(1,0,0,1,1060,600) translate(82.6962962962963 34.266666666666666)"/></g><path d="M257.33 285.13v325.73a6 6 0 0 0 6 6H679" stroke="#3a414a" stroke-width="3" fill="none"/><path d="M257.33 256.12l-14.85 14.85 14.85 14.85 14.85-14.85z" stroke="#3a414a" stroke-width="3" fill="#fff"/><path d="M677.5 601.86v30" stroke="#3a414a" stroke-width="3" fill="none"/><defs><path d="M212-179c-10-28-35-45-73-45-59 0-87 40-87 99 0 60 29 101 89 101 43 0 62-24 78-52l27 14C228-24 195 4 139 4 59 4 22-46 18-125c-6-104 99-153 187-111 19 9 31 26 39 46" id="V"/><path d="M24 0v-261h32V0H24" id="W"/><path d="M141-36C126-15 110 5 73 4 37 3 15-17 15-53c-1-64 63-63 125-63 3-35-9-54-41-54-24 1-41 7-42 31l-33-3c5-37 33-52 76-52 45 0 72 20 72 64v82c-1 20 7 32 28 27v20c-31 9-61-2-59-35zM48-53c0 20 12 33 32 33 41-3 63-29 60-74-43 2-92-5-92 41" id="X"/><path d="M135-143c-3-34-86-38-87 0 15 53 115 12 119 90S17 21 10-45l28-5c4 36 97 45 98 0-10-56-113-15-118-90-4-57 82-63 122-42 12 7 21 19 24 35" id="Y"/><path d="M100-194c63 0 86 42 84 106H49c0 40 14 67 53 68 26 1 43-12 49-29l28 8c-11 28-37 45-77 45C44 4 14-33 15-96c1-61 26-98 85-98zm52 81c6-60-76-77-97-28-3 7-6 17-6 28h103" id="Z"/><g id="a"><use transform="matrix(0.06172839506172839,0,0,0.06172839506172839,0,0)" xlink:href="#V"/><use transform="matrix(0.06172839506172839,0,0,0.06172839506172839,15.987654320987653,0)" xlink:href="#W"/><use transform="matrix(0.06172839506172839,0,0,0.06172839506172839,20.864197530864196,0)" xlink:href="#X"/><use transform="matrix(0.06172839506172839,0,0,0.06172839506172839,33.20987654320987,0)" xlink:href="#Y"/><use transform="matrix(0.06172839506172839,0,0,0.06172839506172839,44.32098765432099,0)" xlink:href="#Y"/><use transform="matrix(0.06172839506172839,0,0,0.06172839506172839,55.4320987654321,0)" xlink:href="#Z"/></g><path d="M16-82v-28h88v28H16" id="aa"/><use transform="matrix(0.05925925925925927,0,0,0.05925925925925927,0,0)" xlink:href="#aa" id="b"/><path d="M24-231v-30h32v30H24zM24 0v-190h32V0H24" id="ab"/><path d="M85-194c31 0 48 13 60 33l-1-100h32l1 261h-30c-2-10 0-23-3-31C134-8 116 4 85 4 32 4 16-35 15-94c0-66 23-100 70-100zm9 24c-40 0-46 34-46 75 0 40 6 74 45 74 42 0 51-32 51-76 0-42-9-74-50-73" id="ac"/><g id="c"><use transform="matrix(0.05925925925925927,0,0,0.05925925925925927,0,0)" xlink:href="#ab"/><use transform="matrix(0.05925925925925927,0,0,0.05925925925925927,4.681481481481482,0)" xlink:href="#ac"/></g><path d="M33-154v-36h34v36H33zM33 0v-36h34V0H33" id="ad"/><use transform="matrix(0.05925925925925927,0,0,0.05925925925925927,0,0)" xlink:href="#ad" id="d"/><path d="M117-194c89-4 53 116 60 194h-32v-121c0-31-8-49-39-48C34-167 62-67 57 0H25l-1-190h30c1 10-1 24 2 32 11-22 29-35 61-36" id="ae"/><path d="M59-47c-2 24 18 29 38 22v24C64 9 27 4 27-40v-127H5v-23h24l9-43h21v43h35v23H59v120" id="af"/><g id="e"><use transform="matrix(0.05925925925925927,0,0,0.05925925925925927,0,0)" xlink:href="#ab"/><use transform="matrix(0.05925925925925927,0,0,0.05925925925925927,4.681481481481482,0)" xlink:href="#ae"/><use transform="matrix(0.05925925925925927,0,0,0.05925925925925927,16.533333333333335,0)" xlink:href="#af"/></g><use transform="matrix(0.06172839506172839,0,0,0.06172839506172839,0,0)" xlink:href="#aa" id="f"/><path d="M114-163C36-179 61-72 57 0H25l-1-190h30c1 12-1 29 2 39 6-27 23-49 58-41v29" id="ag"/><g id="g"><use transform="matrix(0.05925925925925927,0,0,0.05925925925925927,0,0)" xlink:href="#af"/><use transform="matrix(0.05925925925925927,0,0,0.05925925925925927,5.9259259259259265,0)" xlink:href="#ab"/><use transform="matrix(0.05925925925925927,0,0,0.05925925925925927,10.607407407407408,0)" xlink:href="#af"/><use transform="matrix(0.05925925925925927,0,0,0.05925925925925927,16.533333333333335,0)" xlink:href="#ag"/><use transform="matrix(0.05925925925925927,0,0,0.05925925925925927,23.58518518518519,0)" xlink:href="#Z"/></g><path d="M177-190C167-65 218 103 67 71c-23-6-38-20-44-43l32-5c15 47 100 32 89-28v-30C133-14 115 1 83 1 29 1 15-40 15-95c0-56 16-97 71-98 29-1 48 16 59 35 1-10 0-23 2-32h30zM94-22c36 0 50-32 50-73 0-42-14-75-50-75-39 0-46 34-46 75s6 73 46 73" id="ah"/><g id="h"><use transform="matrix(0.05925925925925927,0,0,0.05925925925925927,0,0)" xlink:href="#Y"/><use transform="matrix(0.05925925925925927,0,0,0.05925925925925927,10.666666666666668,0)" xlink:href="#af"/><use transform="matrix(0.05925925925925927,0,0,0.05925925925925927,16.592592592592595,0)" xlink:href="#ag"/><use transform="matrix(0.05925925925925927,0,0,0.05925925925925927,23.64444444444445,0)" xlink:href="#ab"/><use transform="matrix(0.05925925925925927,0,0,0.05925925925925927,28.32592592592593,0)" xlink:href="#ae"/><use transform="matrix(0.05925925925925927,0,0,0.05925925925925927,40.177777777777784,0)" xlink:href="#ah"/></g><path d="M96-169c-40 0-48 33-48 73s9 75 48 75c24 0 41-14 43-38l32 2c-6 37-31 61-74 61-59 0-76-41-82-99-10-93 101-131 147-64 4 7 5 14 7 22l-32 3c-4-21-16-35-41-35" id="ai"/><path d="M115-194c55 1 70 41 70 98S169 2 115 4C84 4 66-9 55-30l1 105H24l-1-265h31l2 30c10-21 28-34 59-34zm-8 174c40 0 45-34 45-75s-6-73-45-74c-42 0-51 32-51 76 0 43 10 73 51 73" id="aj"/><g id="i"><use transform="matrix(0.06172839506172839,0,0,0.06172839506172839,0,0)" xlink:href="#aa"/><use transform="matrix(0.06172839506172839,0,0,0.06172839506172839,7.345679012345679,0)" xlink:href="#ai"/><use transform="matrix(0.06172839506172839,0,0,0.06172839506172839,18.45679012345679,0)" xlink:href="#X"/><use transform="matrix(0.06172839506172839,0,0,0.06172839506172839,30.80246913580247,0)" xlink:href="#aj"/><use transform="matrix(0.06172839506172839,0,0,0.06172839506172839,43.148148148148145,0)" xlink:href="#X"/><use transform="matrix(0.06172839506172839,0,0,0.06172839506172839,55.49382716049382,0)" xlink:href="#ai"/><use transform="matrix(0.06172839506172839,0,0,0.06172839506172839,66.60493827160494,0)" xlink:href="#ab"/><use transform="matrix(0.06172839506172839,0,0,0.06172839506172839,71.48148148148148,0)" xlink:href="#af"/><use transform="matrix(0.06172839506172839,0,0,0.06172839506172839,77.65432098765432,0)" xlink:href="#Z"/></g><use transform="matrix(0.06172839506172839,0,0,0.06172839506172839,0,0)" xlink:href="#ad" id="j"/><g id="k"><use transform="matrix(0.06172839506172839,0,0,0.06172839506172839,0,0)" xlink:href="#ab"/><use transform="matrix(0.06172839506172839,0,0,0.06172839506172839,4.876543209876543,0)" xlink:href="#ae"/><use transform="matrix(0.06172839506172839,0,0,0.06172839506172839,17.22222222222222,0)" xlink:href="#af"/></g><path d="M30 0v-248h33v221h125V0H30" id="ak"/><path d="M18-100v-36l175-74v27L42-118l151 64v27" id="al"/><path d="M30 0v-248h187v28H63v79h144v27H63v87h162V0H30" id="am"/><path d="M84 4C-5 8 30-112 23-190h32v120c0 31 7 50 39 49 72-2 45-101 50-169h31l1 190h-30c-1-10 1-25-2-33-11 22-28 36-60 37" id="an"/><path d="M18-27v-27l151-64-151-65v-27l175 74v36" id="ao"/><g id="l"><use transform="matrix(0.06172839506172839,0,0,0.06172839506172839,0,0)" xlink:href="#aa"/><use transform="matrix(0.06172839506172839,0,0,0.06172839506172839,7.345679012345679,0)" xlink:href="#ak"/><use transform="matrix(0.06172839506172839,0,0,0.06172839506172839,19.691358024691358,0)" xlink:href="#ab"/><use transform="matrix(0.06172839506172839,0,0,0.06172839506172839,24.5679012345679,0)" xlink:href="#Y"/><use transform="matrix(0.06172839506172839,0,0,0.06172839506172839,35.67901234567901,0)" xlink:href="#af"/><use transform="matrix(0.06172839506172839,0,0,0.06172839506172839,41.851851851851855,0)" xlink:href="#al"/><use transform="matrix(0.06172839506172839,0,0,0.06172839506172839,54.81481481481482,0)" xlink:href="#am"/><use transform="matrix(0.06172839506172839,0,0,0.06172839506172839,69.62962962962963,0)" xlink:href="#af"/><use transform="matrix(0.06172839506172839,0,0,0.06172839506172839,75.80246913580247,0)" xlink:href="#an"/><use transform="matrix(0.06172839506172839,0,0,0.06172839506172839,88.14814814814815,0)" xlink:href="#ac"/><use transform="matrix(0.06172839506172839,0,0,0.06172839506172839,100.49382716049384,0)" xlink:href="#ab"/><use transform="matrix(0.06172839506172839,0,0,0.06172839506172839,105.37037037037038,0)" xlink:href="#X"/><use transform="matrix(0.06172839506172839,0,0,0.06172839506172839,117.71604938271606,0)" xlink:href="#ae"/><use transform="matrix(0.06172839506172839,0,0,0.06172839506172839,130.06172839506175,0)" xlink:href="#af"/><use transform="matrix(0.06172839506172839,0,0,0.06172839506172839,136.23456790123458,0)" xlink:href="#ao"/></g><g id="m"><use transform="matrix(0.06172839506172839,0,0,0.06172839506172839,0,0)" xlink:href="#am"/><use transform="matrix(0.06172839506172839,0,0,0.06172839506172839,14.814814814814813,0)" xlink:href="#af"/><use transform="matrix(0.06172839506172839,0,0,0.06172839506172839,20.98765432098765,0)" xlink:href="#an"/><use transform="matrix(0.06172839506172839,0,0,0.06172839506172839,33.33333333333333,0)" xlink:href="#ac"/><use transform="matrix(0.06172839506172839,0,0,0.06172839506172839,45.679012345679006,0)" xlink:href="#ab"/><use transform="matrix(0.06172839506172839,0,0,0.06172839506172839,50.55555555555555,0)" xlink:href="#X"/><use transform="matrix(0.06172839506172839,0,0,0.06172839506172839,62.90123456790123,0)" xlink:href="#ae"/><use transform="matrix(0.06172839506172839,0,0,0.06172839506172839,75.24691358024691,0)" xlink:href="#af"/><use transform="matrix(0.06172839506172839,0,0,0.06172839506172839,81.41975308641975,0)" xlink:href="#Y"/></g><path d="M210-169c-67 3-38 105-44 169h-31v-121c0-29-5-50-35-48C34-165 62-65 56 0H25l-1-190h30c1 10-1 24 2 32 10-44 99-50 107 0 11-21 27-35 58-36 85-2 47 119 55 194h-31v-121c0-29-5-49-35-48" id="ap"/><path d="M100-194c62-1 85 37 85 99 1 63-27 99-86 99S16-35 15-95c0-66 28-99 85-99zM99-20c44 1 53-31 53-75 0-43-8-75-51-75s-53 32-53 75 10 74 51 75" id="aq"/><path d="M179-190L93 31C79 59 56 82 12 73V49c39 6 53-20 64-50L1-190h34L92-34l54-156h33" id="ar"/><path d="M100-194c63 0 86 42 84 106H49c0 40 14 67 53 68 26 1 43-12 49-29l28 8c-11 28-37 45-77 45C44 4 14-33 15-96c1-61 26-98 85-98zm52 81c6-60-76-77-97-28-3 7-6 17-6 28h103zm-74-98c8-23 27-35 38-54h36v5l-58 49H78" id="as"/><g id="n"><use transform="matrix(0.05555555555555555,0,0,0.05555555555555555,0,0)" xlink:href="#am"/><use transform="matrix(0.05555555555555555,0,0,0.05555555555555555,13.333333333333332,0)" xlink:href="#ap"/><use transform="matrix(0.05555555555555555,0,0,0.05555555555555555,29.944444444444443,0)" xlink:href="#aj"/><use transform="matrix(0.05555555555555555,0,0,0.05555555555555555,41.05555555555556,0)" xlink:href="#W"/><use transform="matrix(0.05555555555555555,0,0,0.05555555555555555,45.44444444444444,0)" xlink:href="#aq"/><use transform="matrix(0.05555555555555555,0,0,0.05555555555555555,56.55555555555556,0)" xlink:href="#ar"/><use transform="matrix(0.05555555555555555,0,0,0.05555555555555555,66.55555555555556,0)" xlink:href="#as"/></g><path d="M118-107v75H92v-75H18v-26h74v-75h26v75h74v26h-74" id="at"/><use transform="matrix(0.06172839506172839,0,0,0.06172839506172839,0,0)" xlink:href="#at" id="o"/><path d="M87 75C49 33 22-17 22-94c0-76 28-126 65-167h31c-38 41-64 92-64 168S80 34 118 75H87" id="au"/><path d="M33-261c38 41 65 92 65 168S71 34 33 75H2C39 34 66-17 66-93S39-220 2-261h31" id="av"/><g id="p"><use transform="matrix(0.05925925925925927,0,0,0.05925925925925927,0,0)" xlink:href="#ah"/><use transform="matrix(0.05925925925925927,0,0,0.05925925925925927,11.851851851851853,0)" xlink:href="#Z"/><use transform="matrix(0.05925925925925927,0,0,0.05925925925925927,23.703703703703706,0)" xlink:href="#ag"/><use transform="matrix(0.05925925925925927,0,0,0.05925925925925927,30.75555555555556,0)" xlink:href="#Z"/><use transform="matrix(0.05925925925925927,0,0,0.05925925925925927,42.607407407407415,0)" xlink:href="#ag"/><use transform="matrix(0.05925925925925927,0,0,0.05925925925925927,49.659259259259265,0)" xlink:href="#V"/><use transform="matrix(0.05925925925925927,0,0,0.05925925925925927,65.00740740740741,0)" xlink:href="#W"/><use transform="matrix(0.05925925925925927,0,0,0.05925925925925927,69.6888888888889,0)" xlink:href="#X"/><use transform="matrix(0.05925925925925927,0,0,0.05925925925925927,81.54074074074074,0)" xlink:href="#Y"/><use transform="matrix(0.05925925925925927,0,0,0.05925925925925927,92.20740740740742,0)" xlink:href="#Y"/><use transform="matrix(0.05925925925925927,0,0,0.05925925925925927,102.87407407407409,0)" xlink:href="#Z"/><use transform="matrix(0.05925925925925927,0,0,0.05925925925925927,114.72592592592594,0)" xlink:href="#au"/><use transform="matrix(0.05925925925925927,0,0,0.05925925925925927,121.7777777777778,0)" xlink:href="#av"/></g><g id="q"><use transform="matrix(0.05925925925925927,0,0,0.05925925925925927,0,0)" xlink:href="#ah"/><use transform="matrix(0.05925925925925927,0,0,0.05925925925925927,11.851851851851853,0)" xlink:href="#Z"/><use transform="matrix(0.05925925925925927,0,0,0.05925925925925927,23.703703703703706,0)" xlink:href="#ag"/><use transform="matrix(0.05925925925925927,0,0,0.05925925925925927,30.75555555555556,0)" xlink:href="#Z"/><use transform="matrix(0.05925925925925927,0,0,0.05925925925925927,42.607407407407415,0)" xlink:href="#ag"/><use transform="matrix(0.05925925925925927,0,0,0.05925925925925927,49.659259259259265,0)" xlink:href="#am"/><use transform="matrix(0.05925925925925927,0,0,0.05925925925925927,63.881481481481494,0)" xlink:href="#af"/><use transform="matrix(0.05925925925925927,0,0,0.05925925925925927,69.80740740740741,0)" xlink:href="#an"/><use transform="matrix(0.05925925925925927,0,0,0.05925925925925927,81.65925925925926,0)" xlink:href="#ac"/><use transform="matrix(0.05925925925925927,0,0,0.05925925925925927,93.5111111111111,0)" xlink:href="#ab"/><use transform="matrix(0.05925925925925927,0,0,0.05925925925925927,98.19259259259259,0)" xlink:href="#X"/><use transform="matrix(0.05925925925925927,0,0,0.05925925925925927,110.04444444444444,0)" xlink:href="#ae"/><use transform="matrix(0.05925925925925927,0,0,0.05925925925925927,121.89629629629628,0)" xlink:href="#af"/><use transform="matrix(0.05925925925925927,0,0,0.05925925925925927,127.82222222222221,0)" xlink:href="#au"/><use transform="matrix(0.05925925925925927,0,0,0.05925925925925927,134.87407407407406,0)" xlink:href="#av"/></g><use transform="matrix(0.05925925925925927,0,0,0.05925925925925927,0,0)" xlink:href="#at" id="r"/><g id="s"><use transform="matrix(0.05925925925925927,0,0,0.05925925925925927,0,0)" xlink:href="#ai"/><use transform="matrix(0.05925925925925927,0,0,0.05925925925925927,10.666666666666668,0)" xlink:href="#aq"/><use transform="matrix(0.05925925925925927,0,0,0.05925925925925927,22.51851851851852,0)" xlink:href="#ae"/><use transform="matrix(0.05925925925925927,0,0,0.05925925925925927,34.370370370370374,0)" xlink:href="#af"/><use transform="matrix(0.05925925925925927,0,0,0.05925925925925927,40.2962962962963,0)" xlink:href="#X"/><use transform="matrix(0.05925925925925927,0,0,0.05925925925925927,52.14814814814815,0)" xlink:href="#ai"/><use transform="matrix(0.05925925925925927,0,0,0.05925925925925927,62.814814814814824,0)" xlink:href="#af"/><use transform="matrix(0.05925925925925927,0,0,0.05925925925925927,68.74074074074075,0)" xlink:href="#Z"/><use transform="matrix(0.05925925925925927,0,0,0.05925925925925927,80.5925925925926,0)" xlink:href="#ag"/><use transform="matrix(0.05925925925925927,0,0,0.05925925925925927,87.64444444444445,0)" xlink:href="#am"/><use transform="matrix(0.05925925925925927,0,0,0.05925925925925927,101.86666666666667,0)" xlink:href="#af"/><use transform="matrix(0.05925925925925927,0,0,0.05925925925925927,107.7925925925926,0)" xlink:href="#an"/><use transform="matrix(0.05925925925925927,0,0,0.05925925925925927,119.64444444444445,0)" xlink:href="#ac"/><use transform="matrix(0.05925925925925927,0,0,0.05925925925925927,131.4962962962963,0)" xlink:href="#ab"/><use transform="matrix(0.05925925925925927,0,0,0.05925925925925927,136.17777777777778,0)" xlink:href="#X"/><use transform="matrix(0.05925925925925927,0,0,0.05925925925925927,148.02962962962962,0)" xlink:href="#ae"/><use transform="matrix(0.05925925925925927,0,0,0.05925925925925927,159.88148148148147,0)" xlink:href="#af"/><use transform="matrix(0.05925925925925927,0,0,0.05925925925925927,165.8074074074074,0)" xlink:href="#au"/><use transform="matrix(0.05925925925925927,0,0,0.05925925925925927,172.85925925925926,0)" xlink:href="#av"/></g><path d="M185-189c-5-48-123-54-124 2 14 75 158 14 163 119 3 78-121 87-175 55-17-10-28-26-33-46l33-7c5 56 141 63 141-1 0-78-155-14-162-118-5-82 145-84 179-34 5 7 8 16 11 25" id="aw"/><path d="M145-31C134-9 116 4 85 4 32 4 16-35 15-94c0-59 17-99 70-100 32-1 48 14 60 33 0-11-1-24 2-32h30l-1 268h-32zM93-21c41 0 51-33 51-76s-8-73-50-73c-40 0-46 35-46 75s5 74 45 74" id="ax"/><g id="t"><use transform="matrix(0.05925925925925927,0,0,0.05925925925925927,0,0)" xlink:href="#ai"/><use transform="matrix(0.05925925925925927,0,0,0.05925925925925927,10.666666666666668,0)" xlink:href="#aq"/><use transform="matrix(0.05925925925925927,0,0,0.05925925925925927,22.51851851851852,0)" xlink:href="#ae"/><use transform="matrix(0.05925925925925927,0,0,0.05925925925925927,34.370370370370374,0)" xlink:href="#Y"/><use transform="matrix(0.05925925925925927,0,0,0.05925925925925927,45.03703703703704,0)" xlink:href="#an"/><use transform="matrix(0.05925925925925927,0,0,0.05925925925925927,56.88888888888889,0)" xlink:href="#W"/><use transform="matrix(0.05925925925925927,0,0,0.05925925925925927,61.57037037037038,0)" xlink:href="#af"/><use transform="matrix(0.05925925925925927,0,0,0.05925925925925927,67.49629629629631,0)" xlink:href="#Z"/><use transform="matrix(0.05925925925925927,0,0,0.05925925925925927,79.34814814814816,0)" xlink:href="#ag"/><use transform="matrix(0.05925925925925927,0,0,0.05925925925925927,86.4,0)" xlink:href="#aw"/><use transform="matrix(0.05925925925925927,0,0,0.05925925925925927,100.62222222222223,0)" xlink:href="#af"/><use transform="matrix(0.05925925925925927,0,0,0.05925925925925927,106.54814814814816,0)" xlink:href="#X"/><use transform="matrix(0.05925925925925927,0,0,0.05925925925925927,118.4,0)" xlink:href="#af"/><use transform="matrix(0.05925925925925927,0,0,0.05925925925925927,124.32592592592592,0)" xlink:href="#ab"/><use transform="matrix(0.05925925925925927,0,0,0.05925925925925927,129.0074074074074,0)" xlink:href="#Y"/><use transform="matrix(0.05925925925925927,0,0,0.05925925925925927,139.67407407407407,0)" xlink:href="#af"/><use transform="matrix(0.05925925925925927,0,0,0.05925925925925927,145.6,0)" xlink:href="#ab"/><use transform="matrix(0.05925925925925927,0,0,0.05925925925925927,150.28148148148148,0)" xlink:href="#ax"/><use transform="matrix(0.05925925925925927,0,0,0.05925925925925927,162.13333333333333,0)" xlink:href="#an"/><use transform="matrix(0.05925925925925927,0,0,0.05925925925925927,173.98518518518517,0)" xlink:href="#Z"/><use transform="matrix(0.05925925925925927,0,0,0.05925925925925927,185.83703703703702,0)" xlink:href="#Y"/><use transform="matrix(0.05925925925925927,0,0,0.05925925925925927,196.50370370370368,0)" xlink:href="#au"/><use transform="matrix(0.05925925925925927,0,0,0.05925925925925927,203.55555555555554,0)" xlink:href="#av"/></g><path d="M97-269c9-18 26-28 38-43h36v5l-54 38H97zM30 0v-248h187v28H63v79h144v27H63v87h162V0H30" id="ay"/><g id="u"><use transform="matrix(0.05925925925925927,0,0,0.05925925925925927,0,0)" xlink:href="#ay"/><use transform="matrix(0.05925925925925927,0,0,0.05925925925925927,14.222222222222225,0)" xlink:href="#af"/><use transform="matrix(0.05925925925925927,0,0,0.05925925925925927,20.148148148148152,0)" xlink:href="#an"/><use transform="matrix(0.05925925925925927,0,0,0.05925925925925927,32.00000000000001,0)" xlink:href="#ac"/><use transform="matrix(0.05925925925925927,0,0,0.05925925925925927,43.85185185185186,0)" xlink:href="#ab"/><use transform="matrix(0.05925925925925927,0,0,0.05925925925925927,48.533333333333346,0)" xlink:href="#X"/><use transform="matrix(0.05925925925925927,0,0,0.05925925925925927,60.3851851851852,0)" xlink:href="#ae"/><use transform="matrix(0.05925925925925927,0,0,0.05925925925925927,72.23703703703706,0)" xlink:href="#af"/></g><path d="M30-248c87 1 191-15 191 75 0 78-77 80-158 76V0H30v-248zm33 125c57 0 124 11 124-50 0-59-68-47-124-48v98" id="az"/><path d="M101-234c-31-9-42 10-38 44h38v23H63V0H32v-167H5v-23h27c-7-52 17-82 69-68v24" id="aA"/><g id="v"><use transform="matrix(0.05925925925925927,0,0,0.05925925925925927,0,0)" xlink:href="#ai"/><use transform="matrix(0.05925925925925927,0,0,0.05925925925925927,10.666666666666668,0)" xlink:href="#aq"/><use transform="matrix(0.05925925925925927,0,0,0.05925925925925927,22.51851851851852,0)" xlink:href="#ae"/><use transform="matrix(0.05925925925925927,0,0,0.05925925925925927,34.370370370370374,0)" xlink:href="#Y"/><use transform="matrix(0.05925925925925927,0,0,0.05925925925925927,45.03703703703704,0)" xlink:href="#an"/><use transform="matrix(0.05925925925925927,0,0,0.05925925925925927,56.88888888888889,0)" xlink:href="#W"/><use transform="matrix(0.05925925925925927,0,0,0.05925925925925927,61.57037037037038,0)" xlink:href="#af"/><use transform="matrix(0.05925925925925927,0,0,0.05925925925925927,67.49629629629631,0)" xlink:href="#Z"/><use transform="matrix(0.05925925925925927,0,0,0.05925925925925927,79.34814814814816,0)" xlink:href="#ag"/><use transform="matrix(0.05925925925925927,0,0,0.05925925925925927,86.4,0)" xlink:href="#az"/><use transform="matrix(0.05925925925925927,0,0,0.05925925925925927,100.62222222222223,0)" xlink:href="#ag"/><use transform="matrix(0.05925925925925927,0,0,0.05925925925925927,107.67407407407408,0)" xlink:href="#aq"/><use transform="matrix(0.05925925925925927,0,0,0.05925925925925927,119.52592592592593,0)" xlink:href="#aA"/><use transform="matrix(0.05925925925925927,0,0,0.05925925925925927,125.45185185185184,0)" xlink:href="#ab"/><use transform="matrix(0.05925925925925927,0,0,0.05925925925925927,130.13333333333333,0)" xlink:href="#W"/><use transform="matrix(0.05925925925925927,0,0,0.05925925925925927,134.8148148148148,0)" xlink:href="#au"/><use transform="matrix(0.05925925925925927,0,0,0.05925925925925927,141.86666666666667,0)" xlink:href="#av"/></g><g id="w"><use transform="matrix(0.05925925925925927,0,0,0.05925925925925927,0,0)" xlink:href="#ai"/><use transform="matrix(0.05925925925925927,0,0,0.05925925925925927,10.666666666666668,0)" xlink:href="#aq"/><use transform="matrix(0.05925925925925927,0,0,0.05925925925925927,22.51851851851852,0)" xlink:href="#ae"/><use transform="matrix(0.05925925925925927,0,0,0.05925925925925927,34.370370370370374,0)" xlink:href="#af"/><use transform="matrix(0.05925925925925927,0,0,0.05925925925925927,40.2962962962963,0)" xlink:href="#X"/><use transform="matrix(0.05925925925925927,0,0,0.05925925925925927,52.14814814814815,0)" xlink:href="#ai"/><use transform="matrix(0.05925925925925927,0,0,0.05925925925925927,62.814814814814824,0)" xlink:href="#af"/><use transform="matrix(0.05925925925925927,0,0,0.05925925925925927,68.74074074074075,0)" xlink:href="#Z"/><use transform="matrix(0.05925925925925927,0,0,0.05925925925925927,80.5925925925926,0)" xlink:href="#ag"/><use transform="matrix(0.05925925925925927,0,0,0.05925925925925927,87.64444444444445,0)" xlink:href="#am"/><use transform="matrix(0.05925925925925927,0,0,0.05925925925925927,101.86666666666667,0)" xlink:href="#ap"/><use transform="matrix(0.05925925925925927,0,0,0.05925925925925927,119.5851851851852,0)" xlink:href="#aj"/><use transform="matrix(0.05925925925925927,0,0,0.05925925925925927,131.43703703703704,0)" xlink:href="#W"/><use transform="matrix(0.05925925925925927,0,0,0.05925925925925927,136.11851851851853,0)" xlink:href="#aq"/><use transform="matrix(0.05925925925925927,0,0,0.05925925925925927,147.97037037037038,0)" xlink:href="#ar"/><use transform="matrix(0.05925925925925927,0,0,0.05925925925925927,158.63703703703703,0)" xlink:href="#as"/><use transform="matrix(0.05925925925925927,0,0,0.05925925925925927,170.48888888888888,0)" xlink:href="#au"/><use transform="matrix(0.05925925925925927,0,0,0.05925925925925927,177.54074074074074,0)" xlink:href="#av"/></g><path d="M232-93c-1 65-40 97-104 97C67 4 28-28 28-90v-158h33c8 89-33 224 67 224 102 0 64-133 71-224h33v155" id="aB"/><g id="x"><use transform="matrix(0.05925925925925927,0,0,0.05925925925925927,0,0)" xlink:href="#aB"/><use transform="matrix(0.05925925925925927,0,0,0.05925925925925927,15.34814814814815,0)" xlink:href="#af"/><use transform="matrix(0.05925925925925927,0,0,0.05925925925925927,21.274074074074075,0)" xlink:href="#ab"/><use transform="matrix(0.05925925925925927,0,0,0.05925925925925927,25.955555555555556,0)" xlink:href="#W"/><use transform="matrix(0.05925925925925927,0,0,0.05925925925925927,30.637037037037043,0)" xlink:href="#ab"/><use transform="matrix(0.05925925925925927,0,0,0.05925925925925927,35.31851851851852,0)" xlink:href="#Y"/><use transform="matrix(0.05925925925925927,0,0,0.05925925925925927,45.98518518518519,0)" xlink:href="#X"/><use transform="matrix(0.05925925925925927,0,0,0.05925925925925927,57.83703703703704,0)" xlink:href="#af"/><use transform="matrix(0.05925925925925927,0,0,0.05925925925925927,63.76296296296297,0)" xlink:href="#Z"/><use transform="matrix(0.05925925925925927,0,0,0.05925925925925927,75.61481481481482,0)" xlink:href="#an"/><use transform="matrix(0.05925925925925927,0,0,0.05925925925925927,87.46666666666667,0)" xlink:href="#ag"/></g><path d="M158-156l-14 65h45v19h-49L124 0h-19l15-72H56L41 0H22l15-72H2v-19h39l14-65H11v-19h48l15-71h20l-16 71h64l16-71h19l-16 71h37v19h-40zm-83 0L61-91h63l14-65H75" id="aC"/><use transform="matrix(0.05925925925925927,0,0,0.05925925925925927,0,0)" xlink:href="#aC" id="y"/><g id="z"><use transform="matrix(0.05925925925925927,0,0,0.05925925925925927,0,0)" xlink:href="#ab"/><use transform="matrix(0.05925925925925927,0,0,0.05925925925925927,4.681481481481482,0)" xlink:href="#ae"/><use transform="matrix(0.05925925925925927,0,0,0.05925925925925927,16.533333333333335,0)" xlink:href="#af"/></g><use transform="matrix(0.06172839506172839,0,0,0.06172839506172839,0,0)" xlink:href="#aC" id="A"/><g id="B"><use transform="matrix(0.05925925925925927,0,0,0.05925925925925927,0,0)" xlink:href="#ae"/><use transform="matrix(0.05925925925925927,0,0,0.05925925925925927,11.851851851851853,0)" xlink:href="#aq"/><use transform="matrix(0.05925925925925927,0,0,0.05925925925925927,23.703703703703706,0)" xlink:href="#ap"/></g><g id="C"><use transform="matrix(0.05925925925925927,0,0,0.05925925925925927,0,0)" xlink:href="#Y"/><use transform="matrix(0.05925925925925927,0,0,0.05925925925925927,10.666666666666668,0)" xlink:href="#af"/><use transform="matrix(0.05925925925925927,0,0,0.05925925925925927,16.592592592592595,0)" xlink:href="#ag"/><use transform="matrix(0.05925925925925927,0,0,0.05925925925925927,23.64444444444445,0)" xlink:href="#ab"/><use transform="matrix(0.05925925925925927,0,0,0.05925925925925927,28.32592592592593,0)" xlink:href="#ae"/><use transform="matrix(0.05925925925925927,0,0,0.05925925925925927,40.177777777777784,0)" xlink:href="#ah"/></g><path fill="#282c33" d="M158-156l-14 65h45v19h-49L124 0h-19l15-72H56L41 0H22l15-72H2v-19h39l14-65H11v-19h48l15-71h20l-16 71h64l16-71h19l-16 71h37v19h-40zm-83 0L61-91h63l14-65H75" id="aD"/><use transform="matrix(0.06234567901234567,0,0,0.06234567901234567,0,0)" xlink:href="#aD" id="D"/><path fill="#282c33" d="M100-194c63 0 86 42 84 106H49c0 40 14 67 53 68 26 1 43-12 49-29l28 8c-11 28-37 45-77 45C44 4 14-33 15-96c1-61 26-98 85-98zm52 81c6-60-76-77-97-28-3 7-6 17-6 28h103" id="aE"/><path fill="#282c33" d="M210-169c-67 3-38 105-44 169h-31v-121c0-29-5-50-35-48C34-165 62-65 56 0H25l-1-190h30c1 10-1 24 2 32 10-44 99-50 107 0 11-21 27-35 58-36 85-2 47 119 55 194h-31v-121c0-29-5-49-35-48" id="aF"/><path fill="#282c33" d="M141-36C126-15 110 5 73 4 37 3 15-17 15-53c-1-64 63-63 125-63 3-35-9-54-41-54-24 1-41 7-42 31l-33-3c5-37 33-52 76-52 45 0 72 20 72 64v82c-1 20 7 32 28 27v20c-31 9-61-2-59-35zM48-53c0 20 12 33 32 33 41-3 63-29 60-74-43 2-92-5-92 41" id="aG"/><path fill="#282c33" d="M24-231v-30h32v30H24zM24 0v-190h32V0H24" id="aH"/><path fill="#282c33" d="M24 0v-261h32V0H24" id="aI"/><g id="E"><use transform="matrix(0.06234567901234567,0,0,0.06234567901234567,0,0)" xlink:href="#aE"/><use transform="matrix(0.06234567901234567,0,0,0.06234567901234567,12.469135802469133,0)" xlink:href="#aF"/><use transform="matrix(0.06234567901234567,0,0,0.06234567901234567,31.110493827160486,0)" xlink:href="#aG"/><use transform="matrix(0.06234567901234567,0,0,0.06234567901234567,43.57962962962962,0)" xlink:href="#aH"/><use transform="matrix(0.06234567901234567,0,0,0.06234567901234567,48.50493827160493,0)" xlink:href="#aI"/></g><path fill="#282c33" d="M33-154v-36h34v36H33zM33 0v-36h34V0H33" id="aJ"/><use transform="matrix(0.06234567901234567,0,0,0.06234567901234567,0,0)" xlink:href="#aJ" id="F"/><path fill="#282c33" d="M135-143c-3-34-86-38-87 0 15 53 115 12 119 90S17 21 10-45l28-5c4 36 97 45 98 0-10-56-113-15-118-90-4-57 82-63 122-42 12 7 21 19 24 35" id="aK"/><path fill="#282c33" d="M59-47c-2 24 18 29 38 22v24C64 9 27 4 27-40v-127H5v-23h24l9-43h21v43h35v23H59v120" id="aL"/><path fill="#282c33" d="M114-163C36-179 61-72 57 0H25l-1-190h30c1 12-1 29 2 39 6-27 23-49 58-41v29" id="aM"/><path fill="#282c33" d="M117-194c89-4 53 116 60 194h-32v-121c0-31-8-49-39-48C34-167 62-67 57 0H25l-1-190h30c1 10-1 24 2 32 11-22 29-35 61-36" id="aN"/><path fill="#282c33" d="M177-190C167-65 218 103 67 71c-23-6-38-20-44-43l32-5c15 47 100 32 89-28v-30C133-14 115 1 83 1 29 1 15-40 15-95c0-56 16-97 71-98 29-1 48 16 59 35 1-10 0-23 2-32h30zM94-22c36 0 50-32 50-73 0-42-14-75-50-75-39 0-46 34-46 75s6 73 46 73" id="aO"/><g id="G"><use transform="matrix(0.06234567901234567,0,0,0.06234567901234567,0,0)" xlink:href="#aK"/><use transform="matrix(0.06234567901234567,0,0,0.06234567901234567,11.22222222222222,0)" xlink:href="#aL"/><use transform="matrix(0.06234567901234567,0,0,0.06234567901234567,17.456790123456784,0)" xlink:href="#aM"/><use transform="matrix(0.06234567901234567,0,0,0.06234567901234567,24.87592592592592,0)" xlink:href="#aH"/><use transform="matrix(0.06234567901234567,0,0,0.06234567901234567,29.801234567901226,0)" xlink:href="#aN"/><use transform="matrix(0.06234567901234567,0,0,0.06234567901234567,42.27037037037036,0)" xlink:href="#aO"/></g><path fill="#282c33" d="M115-194c55 1 70 41 70 98S169 2 115 4C84 4 66-9 55-30l1 105H24l-1-265h31l2 30c10-21 28-34 59-34zm-8 174c40 0 45-34 45-75s-6-73-45-74c-42 0-51 32-51 76 0 43 10 73 51 73" id="aP"/><path fill="#282c33" d="M206 0h-36l-40-164L89 0H53L-1-190h32L70-26l43-164h34l41 164 42-164h31" id="aQ"/><path fill="#282c33" d="M100-194c62-1 85 37 85 99 1 63-27 99-86 99S16-35 15-95c0-66 28-99 85-99zM99-20c44 1 53-31 53-75 0-43-8-75-51-75s-53 32-53 75 10 74 51 75" id="aR"/><path fill="#282c33" d="M85-194c31 0 48 13 60 33l-1-100h32l1 261h-30c-2-10 0-23-3-31C134-8 116 4 85 4 32 4 16-35 15-94c0-66 23-100 70-100zm9 24c-40 0-46 34-46 75 0 40 6 74 45 74 42 0 51-32 51-76 0-42-9-74-50-73" id="aS"/><g id="H"><use transform="matrix(0.06234567901234567,0,0,0.06234567901234567,0,0)" xlink:href="#aP"/><use transform="matrix(0.06234567901234567,0,0,0.06234567901234567,12.469135802469133,0)" xlink:href="#aG"/><use transform="matrix(0.06234567901234567,0,0,0.06234567901234567,24.938271604938265,0)" xlink:href="#aK"/><use transform="matrix(0.06234567901234567,0,0,0.06234567901234567,36.16049382716049,0)" xlink:href="#aK"/><use transform="matrix(0.06234567901234567,0,0,0.06234567901234567,47.38271604938271,0)" xlink:href="#aQ"/><use transform="matrix(0.06234567901234567,0,0,0.06234567901234567,63.530246913580235,0)" xlink:href="#aR"/><use transform="matrix(0.06234567901234567,0,0,0.06234567901234567,75.99938271604937,0)" xlink:href="#aM"/><use transform="matrix(0.06234567901234567,0,0,0.06234567901234567,83.4185185185185,0)" xlink:href="#aS"/></g><g id="I"><use transform="matrix(0.06234567901234567,0,0,0.06234567901234567,0,0)" xlink:href="#aM"/><use transform="matrix(0.06234567901234567,0,0,0.06234567901234567,7.4191358024691345,0)" xlink:href="#aR"/><use transform="matrix(0.06234567901234567,0,0,0.06234567901234567,19.888271604938268,0)" xlink:href="#aI"/><use transform="matrix(0.06234567901234567,0,0,0.06234567901234567,24.813580246913574,0)" xlink:href="#aE"/><use transform="matrix(0.06234567901234567,0,0,0.06234567901234567,37.28271604938271,0)" xlink:href="#aJ"/></g><g id="J"><use transform="matrix(0.06234567901234567,0,0,0.06234567901234567,0,0)" xlink:href="#aK"/><use transform="matrix(0.06234567901234567,0,0,0.06234567901234567,11.22222222222222,0)" xlink:href="#aL"/><use transform="matrix(0.06234567901234567,0,0,0.06234567901234567,17.456790123456784,0)" xlink:href="#aM"/><use transform="matrix(0.06234567901234567,0,0,0.06234567901234567,24.87592592592592,0)" xlink:href="#aH"/><use transform="matrix(0.06234567901234567,0,0,0.06234567901234567,29.801234567901226,0)" xlink:href="#aN"/><use transform="matrix(0.06234567901234567,0,0,0.06234567901234567,42.27037037037036,0)" xlink:href="#aO"/></g><g id="K"><use transform="matrix(0.05925925925925927,0,0,0.05925925925925927,0,0)" xlink:href="#ai"/><use transform="matrix(0.05925925925925927,0,0,0.05925925925925927,10.666666666666668,0)" xlink:href="#ag"/><use transform="matrix(0.05925925925925927,0,0,0.05925925925925927,17.718518518518522,0)" xlink:href="#as"/><use transform="matrix(0.05925925925925927,0,0,0.05925925925925927,29.570370370370377,0)" xlink:href="#Z"/><use transform="matrix(0.05925925925925927,0,0,0.05925925925925927,41.42222222222223,0)" xlink:href="#ag"/><use transform="matrix(0.05925925925925927,0,0,0.05925925925925927,48.47407407407408,0)" xlink:href="#V"/><use transform="matrix(0.05925925925925927,0,0,0.05925925925925927,63.82222222222223,0)" xlink:href="#aq"/><use transform="matrix(0.05925925925925927,0,0,0.05925925925925927,75.67407407407408,0)" xlink:href="#ap"/><use transform="matrix(0.05925925925925927,0,0,0.05925925925925927,93.3925925925926,0)" xlink:href="#aj"/><use transform="matrix(0.05925925925925927,0,0,0.05925925925925927,105.24444444444445,0)" xlink:href="#af"/><use transform="matrix(0.05925925925925927,0,0,0.05925925925925927,111.17037037037038,0)" xlink:href="#Z"/><use transform="matrix(0.05925925925925927,0,0,0.05925925925925927,123.02222222222221,0)" xlink:href="#au"/><use transform="matrix(0.05925925925925927,0,0,0.05925925925925927,130.07407407407408,0)" xlink:href="#av"/></g><g id="L"><use transform="matrix(0.05925925925925927,0,0,0.05925925925925927,0,0)" xlink:href="#Y"/><use transform="matrix(0.05925925925925927,0,0,0.05925925925925927,10.666666666666668,0)" xlink:href="#Z"/><use transform="matrix(0.05925925925925927,0,0,0.05925925925925927,22.51851851851852,0)" xlink:href="#V"/><use transform="matrix(0.05925925925925927,0,0,0.05925925925925927,37.86666666666667,0)" xlink:href="#aq"/><use transform="matrix(0.05925925925925927,0,0,0.05925925925925927,49.71851851851852,0)" xlink:href="#ae"/><use transform="matrix(0.05925925925925927,0,0,0.05925925925925927,61.57037037037038,0)" xlink:href="#ae"/><use transform="matrix(0.05925925925925927,0,0,0.05925925925925927,73.42222222222223,0)" xlink:href="#Z"/><use transform="matrix(0.05925925925925927,0,0,0.05925925925925927,85.27407407407408,0)" xlink:href="#ai"/><use transform="matrix(0.05925925925925927,0,0,0.05925925925925927,95.94074074074075,0)" xlink:href="#af"/><use transform="matrix(0.05925925925925927,0,0,0.05925925925925927,101.86666666666667,0)" xlink:href="#Z"/><use transform="matrix(0.05925925925925927,0,0,0.05925925925925927,113.71851851851852,0)" xlink:href="#ag"/><use transform="matrix(0.05925925925925927,0,0,0.05925925925925927,120.77037037037037,0)" xlink:href="#au"/><use transform="matrix(0.05925925925925927,0,0,0.05925925925925927,127.82222222222221,0)" xlink:href="#av"/></g><g id="M"><use transform="matrix(0.05925925925925927,0,0,0.05925925925925927,0,0)" xlink:href="#ah"/><use transform="matrix(0.05925925925925927,0,0,0.05925925925925927,11.851851851851853,0)" xlink:href="#Z"/><use transform="matrix(0.05925925925925927,0,0,0.05925925925925927,23.703703703703706,0)" xlink:href="#ag"/><use transform="matrix(0.05925925925925927,0,0,0.05925925925925927,30.75555555555556,0)" xlink:href="#Z"/></g><path d="M27 0v-27h64v-190l-56 39v-29l58-41h29v221h61V0H27" id="aT"/><path d="M33 0v-38h34V0H33" id="aU"/><g id="N"><use transform="matrix(0.06172839506172839,0,0,0.06172839506172839,0,0)" xlink:href="#aT"/><use transform="matrix(0.06172839506172839,0,0,0.06172839506172839,12.345679012345679,0)" xlink:href="#aU"/><use transform="matrix(0.06172839506172839,0,0,0.06172839506172839,18.51851851851852,0)" xlink:href="#aU"/><use transform="matrix(0.06172839506172839,0,0,0.06172839506172839,24.691358024691358,0)" xlink:href="#aT"/></g><path d="M101-251c68 0 85 55 85 127S166 4 100 4C33 4 14-52 14-124c0-73 17-127 87-127zm-1 229c47 0 54-49 54-102s-4-102-53-102c-51 0-55 48-55 102 0 53 5 102 54 102" id="aV"/><path d="M80-196l47-18 7 23-49 13 32 44-20 13-27-46-27 45-21-12 33-44-49-13 8-23 47 19-2-53h23" id="aW"/><g id="O"><use transform="matrix(0.06172839506172839,0,0,0.06172839506172839,0,0)" xlink:href="#aV"/><use transform="matrix(0.06172839506172839,0,0,0.06172839506172839,12.345679012345679,0)" xlink:href="#aU"/><use transform="matrix(0.06172839506172839,0,0,0.06172839506172839,18.51851851851852,0)" xlink:href="#aU"/><use transform="matrix(0.06172839506172839,0,0,0.06172839506172839,24.691358024691358,0)" xlink:href="#aW"/></g><g id="P"><use transform="matrix(0.06172839506172839,0,0,0.06172839506172839,0,0)" xlink:href="#aW"/><use transform="matrix(0.06172839506172839,0,0,0.06172839506172839,8.641975308641975,0)" xlink:href="#aU"/><use transform="matrix(0.06172839506172839,0,0,0.06172839506172839,14.814814814814813,0)" xlink:href="#aU"/><use transform="matrix(0.06172839506172839,0,0,0.06172839506172839,20.98765432098765,0)" xlink:href="#aW"/></g><g id="Q"><use transform="matrix(0.05925925925925927,0,0,0.05925925925925927,0,0)" xlink:href="#X"/><use transform="matrix(0.05925925925925927,0,0,0.05925925925925927,11.851851851851853,0)" xlink:href="#ac"/><use transform="matrix(0.05925925925925927,0,0,0.05925925925925927,23.703703703703706,0)" xlink:href="#ap"/><use transform="matrix(0.05925925925925927,0,0,0.05925925925925927,41.42222222222223,0)" xlink:href="#ab"/><use transform="matrix(0.05925925925925927,0,0,0.05925925925925927,46.103703703703715,0)" xlink:href="#ae"/><use transform="matrix(0.05925925925925927,0,0,0.05925925925925927,57.95555555555557,0)" xlink:href="#ab"/><use transform="matrix(0.05925925925925927,0,0,0.05925925925925927,62.63703703703706,0)" xlink:href="#Y"/><use transform="matrix(0.05925925925925927,0,0,0.05925925925925927,73.30370370370372,0)" xlink:href="#af"/><use transform="matrix(0.05925925925925927,0,0,0.05925925925925927,79.22962962962964,0)" xlink:href="#ag"/><use transform="matrix(0.05925925925925927,0,0,0.05925925925925927,86.28148148148149,0)" xlink:href="#X"/><use transform="matrix(0.05925925925925927,0,0,0.05925925925925927,98.13333333333334,0)" xlink:href="#af"/><use transform="matrix(0.05925925925925927,0,0,0.05925925925925927,104.05925925925926,0)" xlink:href="#Z"/><use transform="matrix(0.05925925925925927,0,0,0.05925925925925927,115.91111111111111,0)" xlink:href="#an"/><use transform="matrix(0.05925925925925927,0,0,0.05925925925925927,127.76296296296296,0)" xlink:href="#ag"/></g><path d="M108 0H70L1-190h34L89-25l56-165h34" id="aX"/><g id="R"><use transform="matrix(0.05925925925925927,0,0,0.05925925925925927,0,0)" xlink:href="#at"/><use transform="matrix(0.05925925925925927,0,0,0.05925925925925927,12.444444444444446,0)" xlink:href="#aX"/><use transform="matrix(0.05925925925925927,0,0,0.05925925925925927,23.111111111111114,0)" xlink:href="#X"/><use transform="matrix(0.05925925925925927,0,0,0.05925925925925927,34.96296296296297,0)" xlink:href="#W"/><use transform="matrix(0.05925925925925927,0,0,0.05925925925925927,39.64444444444445,0)" xlink:href="#ab"/><use transform="matrix(0.05925925925925927,0,0,0.05925925925925927,44.32592592592594,0)" xlink:href="#ac"/><use transform="matrix(0.05925925925925927,0,0,0.05925925925925927,56.17777777777779,0)" xlink:href="#Z"/><use transform="matrix(0.05925925925925927,0,0,0.05925925925925927,68.02962962962964,0)" xlink:href="#ag"/><use transform="matrix(0.05925925925925927,0,0,0.05925925925925927,75.08148148148149,0)" xlink:href="#V"/><use transform="matrix(0.05925925925925927,0,0,0.05925925925925927,90.42962962962964,0)" xlink:href="#aq"/><use transform="matrix(0.05925925925925927,0,0,0.05925925925925927,102.28148148148149,0)" xlink:href="#ap"/><use transform="matrix(0.05925925925925927,0,0,0.05925925925925927,120.00000000000001,0)" xlink:href="#aj"/><use transform="matrix(0.05925925925925927,0,0,0.05925925925925927,131.85185185185188,0)" xlink:href="#af"/><use transform="matrix(0.05925925925925927,0,0,0.05925925925925927,137.7777777777778,0)" xlink:href="#Z"/><use transform="matrix(0.05925925925925927,0,0,0.05925925925925927,149.62962962962965,0)" xlink:href="#au"/><use transform="matrix(0.05925925925925927,0,0,0.05925925925925927,156.6814814814815,0)" xlink:href="#av"/></g><g id="S"><use transform="matrix(0.05925925925925927,0,0,0.05925925925925927,0,0)" xlink:href="#at"/><use transform="matrix(0.05925925925925927,0,0,0.05925925925925927,12.444444444444446,0)" xlink:href="#ah"/><use transform="matrix(0.05925925925925927,0,0,0.05925925925925927,24.296296296296298,0)" xlink:href="#Z"/><use transform="matrix(0.05925925925925927,0,0,0.05925925925925927,36.14814814814815,0)" xlink:href="#ag"/><use transform="matrix(0.05925925925925927,0,0,0.05925925925925927,43.2,0)" xlink:href="#Z"/><use transform="matrix(0.05925925925925927,0,0,0.05925925925925927,55.05185185185186,0)" xlink:href="#ag"/><use transform="matrix(0.05925925925925927,0,0,0.05925925925925927,62.103703703703715,0)" xlink:href="#V"/><use transform="matrix(0.05925925925925927,0,0,0.05925925925925927,77.45185185185186,0)" xlink:href="#aq"/><use transform="matrix(0.05925925925925927,0,0,0.05925925925925927,89.3037037037037,0)" xlink:href="#ap"/><use transform="matrix(0.05925925925925927,0,0,0.05925925925925927,107.02222222222223,0)" xlink:href="#aj"/><use transform="matrix(0.05925925925925927,0,0,0.05925925925925927,118.87407407407407,0)" xlink:href="#af"/><use transform="matrix(0.05925925925925927,0,0,0.05925925925925927,124.8,0)" xlink:href="#Z"/><use transform="matrix(0.05925925925925927,0,0,0.05925925925925927,136.65185185185186,0)" xlink:href="#au"/><use transform="matrix(0.05925925925925927,0,0,0.05925925925925927,143.70370370370372,0)" xlink:href="#av"/></g><path d="M143 4C61 4 22-44 18-125c-5-107 100-154 193-111 17 8 29 25 37 43l-32 9c-13-25-37-40-76-40-61 0-88 39-88 99 0 61 29 100 91 101 35 0 62-11 79-27v-45h-74v-28h105v86C228-13 192 4 143 4" id="aY"/><path d="M115-194c53 0 69 39 70 98 0 66-23 100-70 100C84 3 66-7 56-30L54 0H23l1-261h32v101c10-23 28-34 59-34zm-8 174c40 0 45-34 45-75 0-40-5-75-45-74-42 0-51 32-51 76 0 43 10 73 51 73" id="aZ"/><g id="T"><use transform="matrix(0.05925925925925927,0,0,0.05925925925925927,0,0)" xlink:href="#at"/><use transform="matrix(0.05925925925925927,0,0,0.05925925925925927,12.444444444444446,0)" xlink:href="#ai"/><use transform="matrix(0.05925925925925927,0,0,0.05925925925925927,23.111111111111114,0)" xlink:href="#aq"/><use transform="matrix(0.05925925925925927,0,0,0.05925925925925927,34.96296296296297,0)" xlink:href="#ae"/><use transform="matrix(0.05925925925925927,0,0,0.05925925925925927,46.814814814814824,0)" xlink:href="#Y"/><use transform="matrix(0.05925925925925927,0,0,0.05925925925925927,57.481481481481495,0)" xlink:href="#an"/><use transform="matrix(0.05925925925925927,0,0,0.05925925925925927,69.33333333333334,0)" xlink:href="#W"/><use transform="matrix(0.05925925925925927,0,0,0.05925925925925927,74.01481481481483,0)" xlink:href="#af"/><use transform="matrix(0.05925925925925927,0,0,0.05925925925925927,79.94074074074075,0)" xlink:href="#Z"/><use transform="matrix(0.05925925925925927,0,0,0.05925925925925927,91.7925925925926,0)" xlink:href="#ag"/><use transform="matrix(0.05925925925925927,0,0,0.05925925925925927,98.84444444444445,0)" xlink:href="#aw"/><use transform="matrix(0.05925925925925927,0,0,0.05925925925925927,113.06666666666668,0)" xlink:href="#af"/><use transform="matrix(0.05925925925925927,0,0,0.05925925925925927,118.9925925925926,0)" xlink:href="#X"/><use transform="matrix(0.05925925925925927,0,0,0.05925925925925927,130.84444444444446,0)" xlink:href="#af"/><use transform="matrix(0.05925925925925927,0,0,0.05925925925925927,136.7703703703704,0)" xlink:href="#ab"/><use transform="matrix(0.05925925925925927,0,0,0.05925925925925927,141.45185185185187,0)" xlink:href="#Y"/><use transform="matrix(0.05925925925925927,0,0,0.05925925925925927,152.11851851851853,0)" xlink:href="#af"/><use transform="matrix(0.05925925925925927,0,0,0.05925925925925927,158.04444444444445,0)" xlink:href="#ab"/><use transform="matrix(0.05925925925925927,0,0,0.05925925925925927,162.72592592592594,0)" xlink:href="#ax"/><use transform="matrix(0.05925925925925927,0,0,0.05925925925925927,174.57777777777778,0)" xlink:href="#an"/><use transform="matrix(0.05925925925925927,0,0,0.05925925925925927,186.42962962962963,0)" xlink:href="#Z"/><use transform="matrix(0.05925925925925927,0,0,0.05925925925925927,198.28148148148148,0)" xlink:href="#Y"/><use transform="matrix(0.05925925925925927,0,0,0.05925925925925927,208.94814814814814,0)" xlink:href="#aY"/><use transform="matrix(0.05925925925925927,0,0,0.05925925925925927,225.54074074074072,0)" xlink:href="#W"/><use transform="matrix(0.05925925925925927,0,0,0.05925925925925927,230.2222222222222,0)" xlink:href="#aq"/><use transform="matrix(0.05925925925925927,0,0,0.05925925925925927,242.07407407407405,0)" xlink:href="#aZ"/><use transform="matrix(0.05925925925925927,0,0,0.05925925925925927,253.92592592592592,0)" xlink:href="#X"/><use transform="matrix(0.05925925925925927,0,0,0.05925925925925927,265.77777777777777,0)" xlink:href="#W"/><use transform="matrix(0.05925925925925927,0,0,0.05925925925925927,270.4592592592592,0)" xlink:href="#Z"/><use transform="matrix(0.05925925925925927,0,0,0.05925925925925927,282.3111111111111,0)" xlink:href="#Y"/></g><g id="U"><use transform="matrix(0.05925925925925927,0,0,0.05925925925925927,0,0)" xlink:href="#ai"/><use transform="matrix(0.05925925925925927,0,0,0.05925925925925927,10.666666666666668,0)" xlink:href="#aq"/><use transform="matrix(0.05925925925925927,0,0,0.05925925925925927,22.51851851851852,0)" xlink:href="#ae"/><use transform="matrix(0.05925925925925927,0,0,0.05925925925925927,34.370370370370374,0)" xlink:href="#af"/><use transform="matrix(0.05925925925925927,0,0,0.05925925925925927,40.2962962962963,0)" xlink:href="#ab"/><use transform="matrix(0.05925925925925927,0,0,0.05925925925925927,44.97777777777778,0)" xlink:href="#Z"/><use transform="matrix(0.05925925925925927,0,0,0.05925925925925927,56.829629629629636,0)" xlink:href="#ae"/><use transform="matrix(0.05925925925925927,0,0,0.05925925925925927,68.68148148148148,0)" xlink:href="#af"/></g></defs></g></svg>